PathFileType	4	(X/Y/Z)	/Users/itak/Documents/Research/Walk-IL/dataset/trc/00038_00004.trc
DataRate	CameraRate	NumFrames	NumMarkers	Units	OrigDataRate	OrigDataStartFrame	OrigNumFrames
100.000000	100.000000	4	53	mm	100.000000	393	524
Frame#	Time	RPSI			LPSI			L3			STRN			T10			C7			CLAV			RBAK			LBAK			LSHO			LUPA			LAEL			LAOL			LWTS			LWPS			LFRA			LIFD			LHPS			LHTS			RSHO			RUPA			RAEL			RAOL			RWTS			RWPS			RFRA			RIFD			RHTS			RHPS			RBHD			LFHD			RFHD			LBHD			LHIP			RHIP			RASI			LASI			LKNE			LTHI			LANK			LTIP			LTOE			LMT1			LMT5			LHEE			RKNE			RTHI			RANK			RTIP			RTOE			RMT1			RMT5			RHEE			
		X1	Y1	Z1	X2	Y2	Z2	X3	Y3	Z3	X4	Y4	Z4	X5	Y5	Z5	X6	Y6	Z6	X7	Y7	Z7	X8	Y8	Z8	X9	Y9	Z9	X10	Y10	Z10	X11	Y11	Z11	X12	Y12	Z12	X13	Y13	Z13	X14	Y14	Z14	X15	Y15	Z15	X16	Y16	Z16	X17	Y17	Z17	X18	Y18	Z18	X19	Y19	Z19	X20	Y20	Z20	X21	Y21	Z21	X22	Y22	Z22	X23	Y23	Z23	X24	Y24	Z24	X25	Y25	Z25	X26	Y26	Z26	X27	Y27	Z27	X28	Y28	Z28	X29	Y29	Z29	X30	Y30	Z30	X31	Y31	Z31	X32	Y32	Z32	X33	Y33	Z33	X34	Y34	Z34	X35	Y35	Z35	X36	Y36	Z36	X37	Y37	Z37	X38	Y38	Z38	X39	Y39	Z39	X40	Y40	Z40	X41	Y41	Z41	X42	Y42	Z42	X43	Y43	Z43	X44	Y44	Z44	X45	Y45	Z45	X46	Y46	Z46	X47	Y47	Z47	X48	Y48	Z48	X49	Y49	Z49	X50	Y50	Z50	X51	Y51	Z51	X52	Y52	Z52	X53	Y53	Z53	

394	3.93	-62.60869216918945	1047.30029296875	644.5994873046875	84.90098571777344	1044.724365234375	574.6471557617188	16.08745574951172	1105.070190429688	597.7874145507812	85.66936492919922	1303.602905273438	805.2462158203125	8.999783515930176	1247.799560546875	568.04833984375	29.53858757019043	1517.00927734375	609.1109008789062	72.63304901123047	1428.399658203125	762.4362182617188	-59.37553787231445	1376.9853515625	583.1492919921875	117.4695434570312	1478.852416992188	561.7919921875	217.2882537841797	1489.07421875	636.9560546875	283.9657592773438	1365.345336914062	582.9934692382812	316.5223999023438	1149.845336914062	572.0731811523438	212.9337310791016	1132.116943359375	552.6991577148438	309.3390808105469	901.7142333984375	684.4017333984375	322.5671997070312	883.75390625	598.4317626953125	332.3945617675781	1034.977905273438	585.1631469726562	305.7574768066406	719.7646484375	725.7929077148438	337.6434326171875	796.4313354492188	634.6271362304688	332.279296875	809.8922119140625	704.7012329101562	-116.3391189575195	1498.569091796875	731.561767578125	-186.3170471191406	1426.671508789062	735.6470336914062	-219.1977844238281	1161.66943359375	697.9445190429688	-124.494873046875	1134.080932617188	676.8341064453125	-160.2329254150391	900.0802612304688	810.5274047851562	-239.1073760986328	886.0626831054688	762.666748046875	-231.6439971923828	1085.270385742188	711.6990966796875	-135.4908447265625	719.3748168945312	813.9728393554688	-164.841552734375	790.7470703125	843.4835815429688	-227.1652526855469	784.2854614257812	801.017578125	114.8153839111328	1704.31396484375	664.3572387695312	7.028980731964111	1704.02734375	854.0787353515625	104.1048889160156	1707.592163085938	845.71630859375	-28.3803539276123	1696.701416015625	682.7296752929688	225.3538970947266	948.9579467773438	613.54150390625	-100.0402755737305	941.0407104492188	797.2718505859375	7.679254531860352	978.4066162109375	855.1607666015625	216.7087554931641	993.1336669921875	750.4876708984375	219.2826080322266	499.67626953125	626.22998046875	231.0003662109375	644.8364868164062	611.140625	97.11650085449219	120.3445739746094	301.3234252929688	165.1473693847656	323.7546691894531	439.4197082519531	96.43740081787109	34.34499359130859	496.8936462402344	66.78993988037109	57.1729850769043	457.6430358886719	150.4888153076172	52.45809173583984	393.7873840332031	31.97917938232422	167.3117370605469	267.8892822265625	-16.1060619354248	531.4346923828125	907.0769653320312	-81.44589233398438	788.7693481445312	851.9649047851562	26.39562034606934	39.27193450927734	889.3450317382812	-8.57318115234375	403.2593994140625	912.8480224609375	112.1167602539062	47.80669784545898	1108.789428710938	129.3119354248047	52.55491638183594	1041.464233398438	32.90921020507812	43.49494171142578	1039.559936523438	61.69965362548828	40.33732223510742	828.2116088867188	
395	3.94	-61.82759094238281	1048.931518554688	651.478515625	85.91937255859375	1046.175903320312	581.9111938476562	16.83999061584473	1106.553466796875	604.90966796875	85.89918518066406	1305.097290039062	812.7785034179688	9.616889953613281	1249.201293945312	575.4583129882812	29.7103099822998	1518.343505859375	616.48046875	72.80931091308594	1429.895263671875	769.9329833984375	-58.92911148071289	1378.272094726562	590.5567016601562	117.8308486938477	1480.43994140625	569.3302612304688	217.4249420166016	1490.873046875	644.7161865234375	284.3879699707031	1367.3662109375	590.6441040039062	317.0187072753906	1151.88623046875	579.1332397460938	213.5581512451172	1134.420288085938	559.2894287109375	309.0823669433594	903.20654296875	690.296142578125	322.80712890625	885.6476440429688	604.3189086914062	332.7306213378906	1036.949096679688	591.79248046875	304.6177368164062	720.9766845703125	730.6912841796875	337.3843078613281	798.0260620117188	640.1952514648438	331.5126342773438	811.1614379882812	710.2850341796875	-116.2177429199219	1499.899780273438	738.776123046875	-186.1945953369141	1428.02001953125	742.844482421875	-218.8806915283203	1162.828369140625	705.8756713867188	-124.1529235839844	1135.272338867188	684.8792724609375	-159.3682556152344	902.0654296875	820.2295532226562	-238.1111755371094	887.500244140625	772.3507690429688	-231.1320495605469	1086.398803710938	720.0286254882812	-133.9559020996094	721.65478515625	825.2261962890625	-163.69580078125	793.0106201171875	854.1658935546875	-225.9399719238281	786.0540161132812	811.567626953125	114.2920608520508	1705.425537109375	670.502685546875	6.725371360778809	1706.3623046875	860.3568115234375	103.8135147094727	1709.955200195312	851.8400268554688	-28.89316558837891	1697.819458007812	689.0932006835938	226.2925720214844	950.0855102539062	621.28271484375	-99.80622100830078	942.1791381835938	803.6912841796875	7.744591236114502	979.5733642578125	862.19091796875	217.1105346679688	994.6890869140625	758.083251953125	224.01611328125	499.8173217773438	638.9616088867188	234.2730560302734	645.4478149414062	622.0999145507812	98.49784851074219	127.7315063476562	306.5172119140625	168.5455780029297	326.7689514160156	449.3908081054688	97.02011108398438	33.79106521606445	498.5617980957031	67.47620391845703	58.84576797485352	460.5690612792969	151.0216217041016	56.20788192749023	396.4806518554688	33.68295669555664	176.0474853515625	274.8133239746094	-16.34036445617676	531.4685668945312	910.35498046875	-81.25299072265625	789.3142700195312	857.4679565429688	26.27589225769043	39.13536834716797	889.4221801757812	-9.013345718383789	403.22900390625	915.0569458007812	112.2460021972656	47.07008743286133	1109.010864257812	129.2903137207031	52.37224578857422	1041.61279296875	33.02000045776367	43.25587844848633	1039.87158203125	61.52741241455078	40.28630828857422	828.25146484375	
396	3.95	-61.00937271118164	1050.5419921875	658.129150390625	86.98101806640625	1047.554321289062	588.9664306640625	17.63387489318848	1107.979736328125	611.8383178710938	86.14027404785156	1306.48876953125	820.1942138671875	10.24387168884277	1250.547119140625	582.7560424804688	29.857177734375	1519.61083984375	623.7553100585938	72.96674346923828	1431.293212890625	777.3262939453125	-58.51509857177734	1379.501220703125	597.8759155273438	118.1529998779297	1481.959106445312	576.7633056640625	217.5332641601562	1492.556762695312	652.3482055664062	284.7752075195312	1369.2734375	598.1513061523438	317.5601196289062	1153.829467773438	586.0828857421875	214.2518768310547	1136.59814453125	565.7128295898438	308.8573303222656	904.672119140625	696.2007446289062	323.162109375	887.4734497070312	610.2332153320312	333.1219177246094	1038.842041015625	598.3651733398438	303.5640869140625	722.1945190429688	735.6968383789062	337.2486267089844	799.5872802734375	645.8539428710938	330.8216857910156	812.4368896484375	715.9348754882812	-116.1159591674805	1501.169311523438	745.9124755859375	-186.0879974365234	1429.31884765625	749.9728393554688	-218.6600494384766	1163.9541015625	713.7276000976562	-123.936882019043	1136.417114257812	692.79443359375	-158.4990386962891	904.0988159179688	829.9845581054688	-237.1300201416016	888.9240112304688	782.1361083984375	-230.7150726318359	1087.477294921875	728.31640625	-132.4563903808594	723.9317626953125	836.6015625	-162.4974060058594	795.3409423828125	864.9881591796875	-224.6995849609375	787.8607788085938	822.274658203125	113.7514190673828	1706.440551757812	676.5567016601562	6.415262222290039	1708.619750976562	866.5447387695312	103.5198211669922	1712.241088867188	857.8705444335938	-29.42152976989746	1698.852905273438	695.385009765625	227.2803802490234	951.0925903320312	628.8121948242188	-99.62630462646484	943.2322998046875	809.82763671875	7.814878463745117	980.6411743164062	868.980712890625	217.5226135253906	996.1526489257812	765.4526977539062	228.6238555908203	499.9320678710938	651.8380737304688	237.5242309570312	645.9862060546875	633.0450439453125	99.95787811279297	135.2848663330078	312.1084594726562	171.931640625	329.7508850097656	459.6697387695312	97.92974090576172	33.32022857666016	500.8333435058594	68.36029052734375	60.87859344482422	463.9800109863281	151.7444000244141	60.47938919067383	399.5989685058594	35.38525772094727	184.7740631103516	282.1513061523438	-16.7108268737793	531.46435546875	913.3789672851562	-81.17771911621094	789.7921752929688	862.6473388671875	26.13398551940918	38.94809722900391	889.4780883789062	-9.560652732849121	403.1820373535156	917.0501098632812	112.2986831665039	46.53734970092773	1109.187133789062	129.1883850097656	52.3121337890625	1041.723876953125	33.05286407470703	43.04565048217773	1040.114868164062	61.33439636230469	40.21415710449219	828.266845703125	
397	3.96	-60.13709259033203	1052.112670898438	664.5277709960938	88.09845733642578	1048.845947265625	595.8028564453125	18.50148391723633	1109.337280273438	618.56201171875	86.39845275878906	1307.753662109375	827.4564208984375	10.89531898498535	1251.826049804688	589.9161987304688	29.98420524597168	1520.810791015625	630.9335327148438	73.11087799072266	1432.573120117188	784.600341796875	-58.12687683105469	1380.657104492188	605.09423828125	118.4381637573242	1483.4033203125	584.0783081054688	217.6197204589844	1494.121459960938	659.8370971679688	285.1328125	1371.05908203125	605.502685546875	318.1309814453125	1155.663818359375	592.9166870117188	214.9878082275391	1138.6328125	571.9996948242188	308.6916809082031	906.094482421875	702.1062622070312	323.6063842773438	889.2150268554688	616.1593017578125	333.5631713867188	1040.64111328125	604.8699340820312	302.6400146484375	723.4002075195312	740.8036499023438	337.2410278320312	801.1054077148438	651.5739135742188	330.2680969238281	813.7060546875	721.6298217773438	-116.0260314941406	1502.35400390625	752.9627075195312	-185.9848480224609	1430.539306640625	757.0349731445312	-218.5218200683594	1165.013671875	721.5066528320312	-123.8271179199219	1137.481323242188	700.5902709960938	-157.6233825683594	906.1394653320312	839.7877197265625	-236.1588745117188	890.3087158203125	792.0133666992188	-230.3811492919922	1088.479614257812	736.5674438476562	-130.9902954101562	726.1787719726562	848.075439453125	-161.2655487060547	797.6845703125	875.8985595703125	-223.4512329101562	789.677490234375	833.1102905273438	113.2012634277344	1707.350830078125	682.516845703125	6.116047382354736	1710.787841796875	872.6388549804688	103.2293701171875	1714.435180664062	863.8052978515625	-29.95395851135254	1699.793334960938	701.6040649414062	228.3441162109375	951.9633178710938	636.1430053710938	-99.48554992675781	944.207763671875	815.6658325195312	7.89756441116333	981.6011962890625	875.5125122070312	217.9538116455078	997.4943237304688	772.6041259765625	233.0274200439453	500.0335388183594	664.8157958984375	240.7100830078125	646.439453125	643.97607421875	101.5048522949219	142.8181610107422	318.1537475585938	175.2607116699219	332.6777038574219	470.2098083496094	99.26698303222656	33.05154037475586	503.8091125488281	69.54296875	63.23012924194336	467.9753112792969	152.7418670654297	65.15993499755859	403.266845703125	37.08831405639648	193.2882232666016	289.9137268066406	-17.19365692138672	531.4248046875	916.1693115234375	-81.23368835449219	790.2033081054688	867.508544921875	25.9752311706543	38.72286605834961	889.5191040039062	-10.18982219696045	403.1257629394531	918.8484497070312	112.2846450805664	46.1796875	1109.320190429688	129.0249938964844	52.3558349609375	1041.803588867188	33.01886749267578	42.86130142211914	1040.296020507812	61.12843704223633	40.12828826904297	828.263671875	
